<svg xmlns="http://www.w3.org/2000/svg" viewBox="0 0 64 64">
  <defs>
    <linearGradient id="bg-edu" x1="0" y1="0" x2="1" y2="1">
      <stop offset="0%" stop-color="#0284c7"/>
      <stop offset="100%" stop-color="#14b8a6"/>
    </linearGradient>
  </defs>
  <circle cx="32" cy="32" r="30" fill="url(#bg-edu)"/>
  <!-- Open book -->
  <path d="M16 20 L32 24 L32 48 L16 44 Z" fill="white" opacity="0.9"/>
  <path d="M48 20 L32 24 L32 48 L48 44 Z" fill="white" opacity="0.7"/>
  <!-- Book spine -->
  <line x1="32" y1="24" x2="32" y2="48" stroke="white" stroke-width="1.5"/>
  <!-- Lines on left page -->
  <line x1="20" y1="28" x2="29" y2="30" stroke="rgba(7,89,133,0.3)" stroke-width="1.2" stroke-linecap="round"/>
  <line x1="20" y1="32" x2="29" y2="34" stroke="rgba(7,89,133,0.3)" stroke-width="1.2" stroke-linecap="round"/>
  <line x1="20" y1="36" x2="29" y2="38" stroke="rgba(7,89,133,0.3)" stroke-width="1.2" stroke-linecap="round"/>
  <!-- Shield/check above book -->
  <path d="M32 10 L38 13 L38 19 C38 23 32 26 32 26 C32 26 26 23 26 19 L26 13 Z" fill="white" opacity="0.85"/>
  <polyline points="29,17 31,20 36,14" fill="none" stroke="#0284c7" stroke-width="2" stroke-linecap="round" stroke-linejoin="round"/>
</svg>