<svg xmlns="http://www.w3.org/2000/svg" viewBox="0 0 64 64">
  <defs>
    <linearGradient id="bg-part" x1="0" y1="0" x2="1" y2="1">
      <stop offset="0%" stop-color="#0284c7"/>
      <stop offset="100%" stop-color="#14b8a6"/>
    </linearGradient>
  </defs>
  <circle cx="32" cy="32" r="30" fill="url(#bg-part)"/>
  <!-- Handshake -->
  <path d="M14 30 L22 24 L30 30 L26 34 L20 30 Z" fill="white" opacity="0.85"/>
  <path d="M50 30 L42 24 L34 30 L38 34 L44 30 Z" fill="white" opacity="0.85"/>
  <!-- Clasped hands center -->
  <path d="M26 34 L30 38 L34 34 L38 38 L34 42 L30 42 L26 38 Z" fill="white" opacity="0.9"/>
  <!-- Building outline left -->
  <rect x="12" y="16" width="10" height="14" rx="1" fill="none" stroke="white" stroke-width="1.5" opacity="0.6"/>
  <rect x="14" y="19" width="2.5" height="2.5" rx="0.5" fill="white" opacity="0.4"/>
  <rect x="18" y="19" width="2.5" height="2.5" rx="0.5" fill="white" opacity="0.4"/>
  <!-- Building outline right -->
  <rect x="42" y="16" width="10" height="14" rx="1" fill="none" stroke="white" stroke-width="1.5" opacity="0.6"/>
  <rect x="44" y="19" width="2.5" height="2.5" rx="0.5" fill="white" opacity="0.4"/>
  <rect x="48" y="19" width="2.5" height="2.5" rx="0.5" fill="white" opacity="0.4"/>
  <!-- Star above handshake -->
  <polygon points="32,8 33.5,12 38,12 34.5,14.5 36,18.5 32,16 28,18.5 29.5,14.5 26,12 30.5,12" fill="white" opacity="0.7"/>
</svg>