<svg xmlns="http://www.w3.org/2000/svg" viewBox="0 0 48 48">
  <defs>
    <linearGradient id="bg" x1="0" y1="0" x2="0.8" y2="1">
      <stop offset="0%" stop-color="#075985"/>
      <stop offset="60%" stop-color="#0284c7"/>
      <stop offset="100%" stop-color="#14b8a6"/>
    </linearGradient>
  </defs>
  <rect width="48" height="48" rx="12" fill="url(#bg)"/>
  <path d="M6 19 C10 16, 14 16, 18 19 C22 22, 26 22, 30 19 C34 16, 38 16, 42 19"
        stroke="white" stroke-width="2.4" fill="none" stroke-linecap="round" opacity="0.5"/>
  <path d="M6 25 C10 22, 14 22, 18 25 C22 28, 26 28, 30 25 C34 22, 38 22, 42 25"
        stroke="white" stroke-width="2.8" fill="none" stroke-linecap="round" opacity="0.85"/>
  <path d="M6 31 C10 28, 14 28, 18 31 C22 34, 26 34, 30 31 C34 28, 38 28, 42 31"
        stroke="white" stroke-width="2.4" fill="none" stroke-linecap="round" opacity="0.5"/>
</svg>