<svg xmlns="http://www.w3.org/2000/svg" viewBox="0 0 48 48">
  <defs>
    <linearGradient id="waveGrad" x1="0" y1="0" x2="1" y2="1">
      <stop offset="0%" stop-color="#075985"/>
      <stop offset="100%" stop-color="#0d9488"/>
    </linearGradient>
  </defs>
  <!-- Rounded square background -->
  <rect width="48" height="48" rx="12" fill="url(#waveGrad)"/>
  <!-- Water drop silhouette with wave cutout -->
  <path d="M24 8 C24 8 13 20 13 28 C13 34.075 17.925 39 24 39 C30.075 39 35 34.075 35 28 C35 20 24 8 24 8Z" fill="white" opacity="0.95"/>
  <!-- Wave inside the drop -->
  <clipPath id="dropClip">
    <path d="M24 8 C24 8 13 20 13 28 C13 34.075 17.925 39 24 39 C30.075 39 35 34.075 35 28 C35 20 24 8 24 8Z"/>
  </clipPath>
  <g clip-path="url(#dropClip)">
    <path d="M10 29 Q17 25.5 24 29 Q31 32.5 38 29 L38 42 L10 42Z" fill="#0284c7" opacity="0.35"/>
    <path d="M10 32 Q17 28.5 24 32 Q31 35.5 38 32 L38 42 L10 42Z" fill="#0284c7" opacity="0.55"/>
    <path d="M10 35 Q17 31.5 24 35 Q31 38.5 38 35 L38 42 L10 42Z" fill="#075985" opacity="0.7"/>
  </g>
</svg>