<svg xmlns="http://www.w3.org/2000/svg" viewBox="0 0 300 180">
  <defs>
    <linearGradient id="bg" x1="0" y1="0" x2="1" y2="1">
      <stop offset="0%" stop-color="#0284c7"/>
      <stop offset="100%" stop-color="#14b8a6"/>
    </linearGradient>
  </defs>
  <rect width="300" height="180" fill="url(#bg)"/>
  
  <path d="M0 100 Q36.0 92 75.0 100 T150.0 100 T225.0 100 T300 100" stroke="rgba(255,255,255,0.3)" fill="none" stroke-width="2"/>
    <path d="M0 108 Q36.0 100 75.0 108 T150.0 108 T225.0 108 T300 108" stroke="rgba(255,255,255,0.2)" fill="none" stroke-width="1.5"/>
  <!-- Parent holding baby in water -->
  <circle cx="140" cy="50" r="10" fill="white"/>
  <path d="M140 60 L140 100 L132 122 L136 122 L140 105 L144 122 L148 122 Z" fill="white"/>
  <line x1="140" y1="70" x2="125" y2="80" stroke="white" stroke-width="3" stroke-linecap="round"/>
  <line x1="140" y1="70" x2="165" y2="65" stroke="white" stroke-width="3" stroke-linecap="round"/>
  <!-- Baby being held close -->
  <circle cx="168" cy="60" r="6" fill="white"/>
  <ellipse cx="168" cy="72" rx="5" ry="7" fill="white" opacity="0.9"/>
  <!-- Gentle water -->
  <circle cx="180" cy="105" r="2" fill="rgba(255,255,255,0.3)"/>
  <circle cx="110" cy="108" r="1.5" fill="rgba(255,255,255,0.25)"/>
  <path d="M0 125 Q36.0 117 75.0 125 T150.0 125 T225.0 125 T300 125" stroke="rgba(255,255,255,0.3)" fill="none" stroke-width="2"/>
    <path d="M0 133 Q36.0 125 75.0 133 T150.0 133 T225.0 133 T300 133" stroke="rgba(255,255,255,0.2)" fill="none" stroke-width="1.5"/>

</svg>