<svg xmlns="http://www.w3.org/2000/svg" viewBox="0 0 300 180">
  <defs>
    <linearGradient id="bg" x1="0" y1="0" x2="1" y2="1">
      <stop offset="0%" stop-color="#0284c7"/>
      <stop offset="100%" stop-color="#14b8a6"/>
    </linearGradient>
  </defs>
  <rect width="300" height="180" fill="url(#bg)"/>
  
  <path d="M0 95 Q36.0 87 75.0 95 T150.0 95 T225.0 95 T300 95" stroke="rgba(255,255,255,0.3)" fill="none" stroke-width="2"/>
    <path d="M0 103 Q36.0 95 75.0 103 T150.0 103 T225.0 103 T300 103" stroke="rgba(255,255,255,0.2)" fill="none" stroke-width="1.5"/>
  <!-- Instructor -->
  <circle cx="80" cy="55" r="10" fill="white"/>
  <path d="M80 65 L80 100 L72 120 L76 120 L80 105 L84 120 L88 120 Z" fill="white"/>
  <line x1="80" y1="75" x2="65" y2="85" stroke="white" stroke-width="3" stroke-linecap="round"/>
  <line x1="80" y1="75" x2="95" y2="68" stroke="white" stroke-width="3" stroke-linecap="round"/>
  <!-- Kids in water in a row -->
  <circle cx="150" cy="88" r="6" fill="white"/>
  <ellipse cx="150" cy="100" rx="7" ry="5" fill="white" opacity="0.7"/>
  <circle cx="185" cy="90" r="5.5" fill="white"/>
  <ellipse cx="185" cy="101" rx="6" ry="5" fill="white" opacity="0.7"/>
  <circle cx="218" cy="88" r="6" fill="white"/>
  <ellipse cx="218" cy="100" rx="7" ry="5" fill="white" opacity="0.7"/>
  <circle cx="250" cy="91" r="5" fill="white" opacity="0.9"/>
  <ellipse cx="250" cy="102" rx="6" ry="4" fill="white" opacity="0.6"/>
  <path d="M0 120 Q36.0 112 75.0 120 T150.0 120 T225.0 120 T300 120" stroke="rgba(255,255,255,0.3)" fill="none" stroke-width="2"/>
    <path d="M0 128 Q36.0 120 75.0 128 T150.0 128 T225.0 128 T300 128" stroke="rgba(255,255,255,0.2)" fill="none" stroke-width="1.5"/>

</svg>