<svg xmlns="http://www.w3.org/2000/svg" viewBox="0 0 300 180">
  <defs>
    <linearGradient id="bg" x1="0" y1="0" x2="1" y2="1">
      <stop offset="0%" stop-color="#0284c7"/>
      <stop offset="100%" stop-color="#14b8a6"/>
    </linearGradient>
  </defs>
  <rect width="300" height="180" fill="url(#bg)"/>
  
  <path d="M0 85 Q36.0 77 75.0 85 T150.0 85 T225.0 85 T300 85" stroke="rgba(255,255,255,0.3)" fill="none" stroke-width="2"/>
    <path d="M0 93 Q36.0 85 75.0 93 T150.0 93 T225.0 93 T300 93" stroke="rgba(255,255,255,0.2)" fill="none" stroke-width="1.5"/>
  <!-- Person partially submerged, arms crossed -->
  <circle cx="150" cy="65" r="9" fill="white"/>
  <path d="M150 74 L150 100" stroke="white" stroke-width="7" stroke-linecap="round"/>
  <line x1="142" y1="82" x2="158" y2="88" stroke="white" stroke-width="3" stroke-linecap="round"/>
  <line x1="158" y1="82" x2="142" y2="88" stroke="white" stroke-width="3" stroke-linecap="round"/>
  <!-- Cold/shiver indicators -->
  <path d="M110 50 L115 45 L110 40" fill="none" stroke="rgba(255,255,255,0.5)" stroke-width="2"/>
  <path d="M190 50 L185 45 L190 40" fill="none" stroke="rgba(255,255,255,0.5)" stroke-width="2"/>
  <path d="M105 70 L110 65 L105 60" fill="none" stroke="rgba(255,255,255,0.4)" stroke-width="2"/>
  <path d="M195 70 L190 65 L195 60" fill="none" stroke="rgba(255,255,255,0.4)" stroke-width="2"/>
  <!-- Snowflake/ice -->
  <line x1="55" y1="40" x2="55" y2="60" stroke="rgba(255,255,255,0.3)" stroke-width="2"/>
  <line x1="45" y1="50" x2="65" y2="50" stroke="rgba(255,255,255,0.3)" stroke-width="2"/>
  <line x1="48" y1="43" x2="62" y2="57" stroke="rgba(255,255,255,0.3)" stroke-width="1.5"/>
  <line x1="62" y1="43" x2="48" y2="57" stroke="rgba(255,255,255,0.3)" stroke-width="1.5"/>
  <path d="M0 120 Q36.0 112 75.0 120 T150.0 120 T225.0 120 T300 120" stroke="rgba(255,255,255,0.3)" fill="none" stroke-width="2"/>
    <path d="M0 128 Q36.0 120 75.0 128 T150.0 128 T225.0 128 T300 128" stroke="rgba(255,255,255,0.2)" fill="none" stroke-width="1.5"/>

</svg>