<svg xmlns="http://www.w3.org/2000/svg" viewBox="0 0 300 180">
  <defs>
    <linearGradient id="bg" x1="0" y1="0" x2="1" y2="1">
      <stop offset="0%" stop-color="#0284c7"/>
      <stop offset="100%" stop-color="#14b8a6"/>
    </linearGradient>
  </defs>
  <rect width="300" height="180" fill="url(#bg)"/>
  
  <!-- Person lying down -->
  <ellipse cx="170" cy="120" rx="45" ry="7" fill="white" opacity="0.8"/>
  <circle cx="220" cy="112" r="7" fill="white"/>
  <!-- Person kneeling doing CPR -->
  <circle cx="145" cy="70" r="9" fill="white"/>
  <path d="M145 79 L145 105 L137 120 L141 120" fill="white"/>
  <path d="M145 105 L153 120 L157 120" fill="white"/>
  <line x1="145" y1="88" x2="165" y2="108" stroke="white" stroke-width="3" stroke-linecap="round"/>
  <line x1="145" y1="88" x2="130" y2="100" stroke="white" stroke-width="3" stroke-linecap="round"/>
  <!-- Heart icon -->
  <path d="M60 55 C60 45 75 45 75 55 C75 45 90 45 90 55 C90 70 75 80 75 80 C75 80 60 70 60 55Z" fill="rgba(255,255,255,0.4)"/>
  <!-- Plus sign -->
  <rect x="67" y="90" width="16" height="4" rx="2" fill="rgba(255,255,255,0.5)"/>
  <rect x="73" y="84" width="4" height="16" rx="2" fill="rgba(255,255,255,0.5)"/>

</svg>