<svg xmlns="http://www.w3.org/2000/svg" viewBox="0 0 300 180">
  <defs>
    <linearGradient id="bg" x1="0" y1="0" x2="1" y2="1">
      <stop offset="0%" stop-color="#0284c7"/>
      <stop offset="100%" stop-color="#14b8a6"/>
    </linearGradient>
  </defs>
  <rect width="300" height="180" fill="url(#bg)"/>
  
  <path d="M0 110 Q36.0 102 75.0 110 T150.0 110 T225.0 110 T300 110" stroke="rgba(255,255,255,0.3)" fill="none" stroke-width="2"/>
    <path d="M0 118 Q36.0 110 75.0 118 T150.0 118 T225.0 118 T300 118" stroke="rgba(255,255,255,0.2)" fill="none" stroke-width="1.5"/>
  <!-- Lifeguard on stand -->
  <rect x="30" y="60" width="8" height="50" fill="rgba(255,255,255,0.5)"/>
  <rect x="20" y="55" width="28" height="6" rx="2" fill="rgba(255,255,255,0.6)"/>
  <circle cx="34" cy="42" r="8" fill="white"/>
  <path d="M34 50 L28 75 L31 75 L34 60 L37 75 L40 75 Z" fill="white"/>
  <line x1="34" y1="55" x2="24" y2="62" stroke="white" stroke-width="3" stroke-linecap="round"/>
  <line x1="34" y1="55" x2="44" y2="48" stroke="white" stroke-width="3" stroke-linecap="round"/>
  <!-- Swimmers in water -->
  <circle cx="120" cy="105" r="6" fill="white"/>
  <ellipse cx="135" cy="108" rx="18" ry="5" fill="white" opacity="0.8"/>
  <circle cx="200" cy="108" r="5" fill="white" opacity="0.8"/>
  <ellipse cx="213" cy="111" rx="15" ry="4" fill="white" opacity="0.7"/>
  <!-- Child with floatie -->
  <circle cx="260" cy="103" r="5" fill="white"/>
  <ellipse cx="260" cy="112" rx="10" ry="6" fill="none" stroke="white" stroke-width="2.5"/>
  <path d="M0 130 Q36.0 122 75.0 130 T150.0 130 T225.0 130 T300 130" stroke="rgba(255,255,255,0.3)" fill="none" stroke-width="2"/>
    <path d="M0 138 Q36.0 130 75.0 138 T150.0 138 T225.0 138 T300 138" stroke="rgba(255,255,255,0.2)" fill="none" stroke-width="1.5"/>

</svg>