<svg xmlns="http://www.w3.org/2000/svg" viewBox="0 0 300 180">
  <defs>
    <linearGradient id="bg" x1="0" y1="0" x2="1" y2="1">
      <stop offset="0%" stop-color="#0284c7"/>
      <stop offset="100%" stop-color="#14b8a6"/>
    </linearGradient>
  </defs>
  <rect width="300" height="180" fill="url(#bg)"/>
  
  <!-- Hotel building outline -->
  <rect x="10" y="15" width="60" height="70" fill="rgba(255,255,255,0.15)" stroke="rgba(255,255,255,0.3)" stroke-width="1.5"/>
  <rect x="20" y="25" width="12" height="12" fill="rgba(255,255,255,0.2)"/>
  <rect x="40" y="25" width="12" height="12" fill="rgba(255,255,255,0.2)"/>
  <rect x="20" y="45" width="12" height="12" fill="rgba(255,255,255,0.2)"/>
  <rect x="40" y="45" width="12" height="12" fill="rgba(255,255,255,0.2)"/>
  <rect x="30" y="65" width="15" height="20" fill="rgba(255,255,255,0.25)"/>
  <path d="M0 100 Q36.0 92 75.0 100 T150.0 100 T225.0 100 T300 100" stroke="rgba(255,255,255,0.3)" fill="none" stroke-width="2"/>
    <path d="M0 108 Q36.0 100 75.0 108 T150.0 108 T225.0 108 T300 108" stroke="rgba(255,255,255,0.2)" fill="none" stroke-width="1.5"/>
  <!-- People at pool -->
  <circle cx="150" cy="70" r="8" fill="white"/>
  <path d="M150 78 L150 100" stroke="white" stroke-width="6" stroke-linecap="round"/>
  <circle cx="200" cy="90" r="6" fill="white"/>
  <ellipse cx="200" cy="105" rx="7" ry="5" fill="white" opacity="0.7"/>
  <circle cx="235" cy="92" r="5" fill="white" opacity="0.9"/>
  <path d="M0 125 Q36.0 117 75.0 125 T150.0 125 T225.0 125 T300 125" stroke="rgba(255,255,255,0.3)" fill="none" stroke-width="2"/>
    <path d="M0 133 Q36.0 125 75.0 133 T150.0 133 T225.0 133 T300 133" stroke="rgba(255,255,255,0.2)" fill="none" stroke-width="1.5"/>

</svg>