<svg xmlns="http://www.w3.org/2000/svg" viewBox="0 0 300 180">
  <defs>
    <linearGradient id="bg" x1="0" y1="0" x2="1" y2="1">
      <stop offset="0%" stop-color="#0284c7"/>
      <stop offset="100%" stop-color="#14b8a6"/>
    </linearGradient>
  </defs>
  <rect width="300" height="180" fill="url(#bg)"/>
  
  <!-- Beach/shore line -->
  <path d="M0 100 Q75 85 150 95 T300 90" fill="rgba(255,255,255,0.15)"/>
  <path d="M0 105 Q36.0 97 75.0 105 T150.0 105 T225.0 105 T300 105" stroke="rgba(255,255,255,0.3)" fill="none" stroke-width="2"/>
    <path d="M0 113 Q36.0 105 75.0 113 T150.0 113 T225.0 113 T300 113" stroke="rgba(255,255,255,0.2)" fill="none" stroke-width="1.5"/>
  <!-- Parent standing on shore watching -->
  <circle cx="60" cy="48" r="9" fill="white"/>
  <path d="M60 57 L60 88 L52 100 L56 100 L60 90 L64 100 L68 100 Z" fill="white"/>
  <line x1="60" y1="67" x2="48" y2="75" stroke="white" stroke-width="3" stroke-linecap="round"/>
  <line x1="60" y1="67" x2="72" y2="62" stroke="white" stroke-width="3" stroke-linecap="round"/>
  <!-- Kids playing in water -->
  <circle cx="160" cy="92" r="6" fill="white"/>
  <ellipse cx="160" cy="105" rx="7" ry="5" fill="white" opacity="0.7"/>
  <line x1="160" y1="97" x2="150" y2="88" stroke="white" stroke-width="2.5" stroke-linecap="round"/>
  <line x1="160" y1="97" x2="170" y2="88" stroke="white" stroke-width="2.5" stroke-linecap="round"/>
  <circle cx="210" cy="95" r="5" fill="white" opacity="0.9"/>
  <path d="M0 130 Q36.0 122 75.0 130 T150.0 130 T225.0 130 T300 130" stroke="rgba(255,255,255,0.3)" fill="none" stroke-width="2"/>
    <path d="M0 138 Q36.0 130 75.0 138 T150.0 138 T225.0 138 T300 138" stroke="rgba(255,255,255,0.2)" fill="none" stroke-width="1.5"/>

</svg>