<svg xmlns="http://www.w3.org/2000/svg" viewBox="0 0 300 180">
  <defs>
    <linearGradient id="bg" x1="0" y1="0" x2="1" y2="1">
      <stop offset="0%" stop-color="#0284c7"/>
      <stop offset="100%" stop-color="#14b8a6"/>
    </linearGradient>
  </defs>
  <rect width="300" height="180" fill="url(#bg)"/>
  
  <!-- Palm tree -->
  <line x1="40" y1="50" x2="40" y2="130" stroke="rgba(255,255,255,0.4)" stroke-width="3"/>
  <path d="M40 50 Q20 30 10 35" fill="none" stroke="rgba(255,255,255,0.5)" stroke-width="2.5" stroke-linecap="round"/>
  <path d="M40 50 Q55 25 70 30" fill="none" stroke="rgba(255,255,255,0.5)" stroke-width="2.5" stroke-linecap="round"/>
  <path d="M40 50 Q25 40 15 50" fill="none" stroke="rgba(255,255,255,0.5)" stroke-width="2.5" stroke-linecap="round"/>
  <path d="M40 50 Q60 40 65 50" fill="none" stroke="rgba(255,255,255,0.5)" stroke-width="2.5" stroke-linecap="round"/>
  <path d="M0 105 Q36.0 97 75.0 105 T150.0 105 T225.0 105 T300 105" stroke="rgba(255,255,255,0.3)" fill="none" stroke-width="2"/>
    <path d="M0 113 Q36.0 105 75.0 113 T150.0 113 T225.0 113 T300 113" stroke="rgba(255,255,255,0.2)" fill="none" stroke-width="1.5"/>
  <!-- People in pool -->
  <circle cx="150" cy="85" r="8" fill="white"/>
  <ellipse cx="150" cy="100" rx="9" ry="6" fill="white" opacity="0.7"/>
  <circle cx="200" cy="88" r="6" fill="white"/>
  <ellipse cx="200" cy="100" rx="7" ry="5" fill="white" opacity="0.7"/>
  <circle cx="240" cy="90" r="5.5" fill="white" opacity="0.9"/>
  <path d="M0 125 Q36.0 117 75.0 125 T150.0 125 T225.0 125 T300 125" stroke="rgba(255,255,255,0.3)" fill="none" stroke-width="2"/>
    <path d="M0 133 Q36.0 125 75.0 133 T150.0 133 T225.0 133 T300 133" stroke="rgba(255,255,255,0.2)" fill="none" stroke-width="1.5"/>

</svg>