<svg xmlns="http://www.w3.org/2000/svg" viewBox="0 0 300 180">
  <defs>
    <linearGradient id="bg" x1="0" y1="0" x2="1" y2="1">
      <stop offset="0%" stop-color="#0284c7"/>
      <stop offset="100%" stop-color="#14b8a6"/>
    </linearGradient>
  </defs>
  <rect width="300" height="180" fill="url(#bg)"/>
  
  <!-- Clipboard/printable -->
  <rect x="90" y="20" width="120" height="145" rx="8" fill="rgba(255,255,255,0.2)" stroke="rgba(255,255,255,0.5)" stroke-width="2"/>
  <rect x="120" y="12" width="60" height="16" rx="8" fill="rgba(255,255,255,0.3)"/>
  <!-- Checklist lines -->
  <path d="M108 55 L112 59 L120 51" fill="none" stroke="white" stroke-width="2" stroke-linecap="round"/>
  <line x1="128" y1="55" x2="190" y2="55" stroke="rgba(255,255,255,0.5)" stroke-width="1.5"/>
  <path d="M108 80 L112 84 L120 76" fill="none" stroke="white" stroke-width="2" stroke-linecap="round"/>
  <line x1="128" y1="80" x2="190" y2="80" stroke="rgba(255,255,255,0.5)" stroke-width="1.5"/>
  <path d="M108 105 L112 109 L120 101" fill="none" stroke="white" stroke-width="2" stroke-linecap="round"/>
  <line x1="128" y1="105" x2="190" y2="105" stroke="rgba(255,255,255,0.5)" stroke-width="1.5"/>
  <rect x="105" y="125" width="10" height="10" rx="1" fill="none" stroke="rgba(255,255,255,0.4)" stroke-width="1.5"/>
  <line x1="128" y1="130" x2="190" y2="130" stroke="rgba(255,255,255,0.5)" stroke-width="1.5"/>
  <!-- Family icon -->
  <circle cx="40" cy="80" r="7" fill="white" opacity="0.5"/>
  <circle cx="40" cy="105" r="5" fill="white" opacity="0.4"/>

</svg>