<svg xmlns="http://www.w3.org/2000/svg" viewBox="0 0 300 180">
  <defs>
    <linearGradient id="bg" x1="0" y1="0" x2="1" y2="1">
      <stop offset="0%" stop-color="#0284c7"/>
      <stop offset="100%" stop-color="#14b8a6"/>
    </linearGradient>
  </defs>
  <rect width="300" height="180" fill="url(#bg)"/>
  
  <!-- Instructor -->
  <circle cx="110" cy="55" r="9" fill="white"/>
  <path d="M110 64 L110 100 L102 125 L106 125 L110 108 L114 125 L118 125 Z" fill="white"/>
  <line x1="110" y1="74" x2="98" y2="84" stroke="white" stroke-width="3" stroke-linecap="round"/>
  <line x1="110" y1="74" x2="122" y2="68" stroke="white" stroke-width="3" stroke-linecap="round"/>
  <!-- Parent asking -->
  <circle cx="200" cy="58" r="8" fill="white"/>
  <path d="M200 66 L200 100 L193 122 L197 122 L200 105 L203 122 L207 122 Z" fill="white"/>
  <line x1="200" y1="76" x2="190" y2="84" stroke="white" stroke-width="3" stroke-linecap="round"/>
  <!-- Speech/question bubbles -->
  <rect x="140" y="30" width="30" height="20" rx="10" fill="rgba(255,255,255,0.3)"/>
  <text x="155" y="45" text-anchor="middle" fill="white" font-size="14" font-weight="bold" font-family="sans-serif">?</text>
  <polygon points="145,50 150,55 155,50" fill="rgba(255,255,255,0.3)"/>

</svg>