<svg xmlns="http://www.w3.org/2000/svg" viewBox="0 0 300 180">
  <defs>
    <linearGradient id="bg" x1="0" y1="0" x2="1" y2="1">
      <stop offset="0%" stop-color="#0284c7"/>
      <stop offset="100%" stop-color="#14b8a6"/>
    </linearGradient>
  </defs>
  <rect width="300" height="180" fill="url(#bg)"/>
  
  <path d="M0 90 Q36.0 82 75.0 90 T150.0 90 T225.0 90 T300 90" stroke="rgba(255,255,255,0.3)" fill="none" stroke-width="2"/>
    <path d="M0 98 Q36.0 90 75.0 98 T150.0 98 T225.0 98 T300 98" stroke="rgba(255,255,255,0.2)" fill="none" stroke-width="1.5"/>
  <!-- Child swimming with kickboard -->
  <circle cx="110" cy="85" r="7" fill="white"/>
  <rect x="125" y="83" width="25" height="8" rx="4" fill="rgba(255,255,255,0.7)"/>
  <ellipse cx="120" cy="95" rx="15" ry="5" fill="white" opacity="0.8"/>
  <line x1="115" y1="100" x2="105" y2="115" stroke="white" stroke-width="2.5" stroke-linecap="round"/>
  <line x1="125" y1="100" x2="130" y2="115" stroke="white" stroke-width="2.5" stroke-linecap="round"/>
  <!-- Milestone markers -->
  <circle cx="210" cy="50" r="15" fill="none" stroke="rgba(255,255,255,0.5)" stroke-width="2"/>
  <text x="210" y="55" text-anchor="middle" fill="white" font-size="14" font-weight="bold" font-family="sans-serif">1</text>
  <circle cx="245" cy="70" r="15" fill="none" stroke="rgba(255,255,255,0.5)" stroke-width="2"/>
  <text x="245" y="75" text-anchor="middle" fill="white" font-size="14" font-weight="bold" font-family="sans-serif">2</text>
  <circle cx="265" cy="100" r="15" fill="none" stroke="rgba(255,255,255,0.5)" stroke-width="2"/>
  <text x="265" y="105" text-anchor="middle" fill="white" font-size="14" font-weight="bold" font-family="sans-serif">3</text>
  <path d="M0 130 Q36.0 122 75.0 130 T150.0 130 T225.0 130 T300 130" stroke="rgba(255,255,255,0.3)" fill="none" stroke-width="2"/>
    <path d="M0 138 Q36.0 130 75.0 138 T150.0 138 T225.0 138 T300 138" stroke="rgba(255,255,255,0.2)" fill="none" stroke-width="1.5"/>

</svg>