<svg xmlns="http://www.w3.org/2000/svg" viewBox="0 0 300 180">
  <defs>
    <linearGradient id="bg" x1="0" y1="0" x2="1" y2="1">
      <stop offset="0%" stop-color="#0284c7"/>
      <stop offset="100%" stop-color="#14b8a6"/>
    </linearGradient>
  </defs>
  <rect width="300" height="180" fill="url(#bg)"/>
  
  <path d="M0 80 Q36.0 72 75.0 80 T150.0 80 T225.0 80 T300 80" stroke="rgba(255,255,255,0.3)" fill="none" stroke-width="2"/>
    <path d="M0 88 Q36.0 80 75.0 88 T150.0 88 T225.0 88 T300 88" stroke="rgba(255,255,255,0.2)" fill="none" stroke-width="1.5"/>
  <!-- Child floating on back (horizontal) -->
  <circle cx="160" cy="92" r="6" fill="white"/>
  <ellipse cx="145" cy="95" rx="22" ry="5" fill="white" opacity="0.85"/>
  <line x1="130" y1="100" x2="120" y2="110" stroke="white" stroke-width="2" stroke-linecap="round"/>
  <line x1="155" y1="100" x2="165" y2="110" stroke="white" stroke-width="2" stroke-linecap="round"/>
  <!-- Parent's hands supporting from below -->
  <circle cx="100" cy="65" r="9" fill="white"/>
  <path d="M100 74 L100 105" stroke="white" stroke-width="8" stroke-linecap="round"/>
  <line x1="100" y1="82" x2="130" y2="95" stroke="white" stroke-width="3" stroke-linecap="round"/>
  <line x1="100" y1="82" x2="88" y2="90" stroke="white" stroke-width="3" stroke-linecap="round"/>
  <path d="M0 115 Q36.0 107 75.0 115 T150.0 115 T225.0 115 T300 115" stroke="rgba(255,255,255,0.3)" fill="none" stroke-width="2"/>
    <path d="M0 123 Q36.0 115 75.0 123 T150.0 123 T225.0 123 T300 123" stroke="rgba(255,255,255,0.2)" fill="none" stroke-width="1.5"/>

</svg>