<svg xmlns="http://www.w3.org/2000/svg" viewBox="0 0 300 180">
  <defs>
    <linearGradient id="bg" x1="0" y1="0" x2="1" y2="1">
      <stop offset="0%" stop-color="#0284c7"/>
      <stop offset="100%" stop-color="#14b8a6"/>
    </linearGradient>
  </defs>
  <rect width="300" height="180" fill="url(#bg)"/>
  
  <path d="M0 100 Q36.0 92 75.0 100 T150.0 100 T225.0 100 T300 100" stroke="rgba(255,255,255,0.3)" fill="none" stroke-width="2"/>
    <path d="M0 108 Q36.0 100 75.0 108 T150.0 108 T225.0 108 T300 108" stroke="rgba(255,255,255,0.2)" fill="none" stroke-width="1.5"/>
  <!-- Teens standing at pool edge -->
  <circle cx="90" cy="40" r="8" fill="white"/>
  <path d="M90 48 L90 82 L82 105 L86 105 L90 87 L94 105 L98 105 Z" fill="white"/>
  <line x1="90" y1="60" x2="78" y2="70" stroke="white" stroke-width="3" stroke-linecap="round"/>
  <circle cx="120" cy="42" r="8" fill="white"/>
  <path d="M120 50 L120 84 L112 105 L116 105 L120 89 L124 105 L128 105 Z" fill="white"/>
  <!-- Teen diving in -->
  <circle cx="200" cy="75" r="7" fill="white"/>
  <path d="M195 80 Q200 95 210 105" stroke="white" stroke-width="6" stroke-linecap="round" fill="none"/>
  <line x1="198" y1="85" x2="188" y2="78" stroke="white" stroke-width="2.5" stroke-linecap="round"/>
  <line x1="205" y1="100" x2="215" y2="110" stroke="white" stroke-width="2.5" stroke-linecap="round"/>
  <path d="M0 130 Q36.0 122 75.0 130 T150.0 130 T225.0 130 T300 130" stroke="rgba(255,255,255,0.3)" fill="none" stroke-width="2"/>
    <path d="M0 138 Q36.0 130 75.0 138 T150.0 138 T225.0 138 T300 138" stroke="rgba(255,255,255,0.2)" fill="none" stroke-width="1.5"/>

</svg>