<svg xmlns="http://www.w3.org/2000/svg" viewBox="0 0 300 180">
  <defs>
    <linearGradient id="bg" x1="0" y1="0" x2="1" y2="1">
      <stop offset="0%" stop-color="#0284c7"/>
      <stop offset="100%" stop-color="#14b8a6"/>
    </linearGradient>
  </defs>
  <rect width="300" height="180" fill="url(#bg)"/>
  
  <!-- Beach umbrella -->
  <line x1="60" y1="35" x2="60" y2="115" stroke="rgba(255,255,255,0.5)" stroke-width="2.5"/>
  <path d="M20 40 Q60 15 100 40 Z" fill="rgba(255,255,255,0.35)"/>
  <!-- Beach/sand area -->
  <path d="M0 110 Q150 100 300 110 L300 180 L0 180 Z" fill="rgba(255,255,255,0.1)"/>
  <!-- Parent on beach -->
  <circle cx="80" cy="75" r="8" fill="white"/>
  <path d="M80 83 L80 108 L88 108 L88 103 L73 103 L73 108 Z" fill="white"/>
  <!-- Kids running toward water -->
  <circle cx="170" cy="72" r="6" fill="white"/>
  <path d="M170 78 L167 100 L170 100 L173 100 Z" fill="white"/>
  <line x1="170" y1="84" x2="178" y2="78" stroke="white" stroke-width="2.5" stroke-linecap="round"/>
  <circle cx="200" cy="75" r="5.5" fill="white" opacity="0.9"/>
  <path d="M200 80 L197 100 L200 100 L203 100 Z" fill="white" opacity="0.9"/>
  <path d="M0 120 Q36.0 112 75.0 120 T150.0 120 T225.0 120 T300 120" stroke="rgba(255,255,255,0.3)" fill="none" stroke-width="2"/>
    <path d="M0 128 Q36.0 120 75.0 128 T150.0 128 T225.0 128 T300 128" stroke="rgba(255,255,255,0.2)" fill="none" stroke-width="1.5"/>

</svg>