<svg xmlns="http://www.w3.org/2000/svg" viewBox="0 0 300 180">
  <defs>
    <linearGradient id="bg" x1="0" y1="0" x2="1" y2="1">
      <stop offset="0%" stop-color="#0284c7"/>
      <stop offset="100%" stop-color="#14b8a6"/>
    </linearGradient>
  </defs>
  <rect width="300" height="180" fill="url(#bg)"/>
  
  <!-- Water slide curve -->
  <path d="M30 20 Q80 20 100 60 Q120 100 180 110 Q220 115 260 140" fill="none" stroke="rgba(255,255,255,0.5)" stroke-width="8" stroke-linecap="round"/>
  <path d="M30 20 Q80 20 100 60 Q120 100 180 110 Q220 115 260 140" fill="none" stroke="rgba(255,255,255,0.15)" stroke-width="20" stroke-linecap="round"/>
  <!-- Person on slide -->
  <circle cx="95" cy="48" r="6" fill="white"/>
  <ellipse cx="100" cy="60" rx="8" ry="5" fill="white" opacity="0.85"/>
  <!-- Person at bottom splash -->
  <circle cx="240" cy="125" r="6" fill="white"/>
  <ellipse cx="240" cy="138" rx="7" ry="5" fill="white" opacity="0.7"/>
  <!-- Splash effect -->
  <circle cx="255" cy="130" r="3" fill="rgba(255,255,255,0.3)"/>
  <circle cx="225" cy="135" r="2" fill="rgba(255,255,255,0.25)"/>
  <circle cx="250" cy="145" r="2.5" fill="rgba(255,255,255,0.2)"/>
  <path d="M0 155 Q36.0 147 75.0 155 T150.0 155 T225.0 155 T300 155" stroke="rgba(255,255,255,0.3)" fill="none" stroke-width="2"/>
    <path d="M0 163 Q36.0 155 75.0 163 T150.0 163 T225.0 163 T300 163" stroke="rgba(255,255,255,0.2)" fill="none" stroke-width="1.5"/>

</svg>