<svg xmlns="http://www.w3.org/2000/svg" viewBox="0 0 300 180">
  <defs>
    <linearGradient id="bg" x1="0" y1="0" x2="1" y2="1">
      <stop offset="0%" stop-color="#0284c7"/>
      <stop offset="100%" stop-color="#14b8a6"/>
    </linearGradient>
  </defs>
  <rect width="300" height="180" fill="url(#bg)"/>
  
  <path d="M0 115 Q36.0 107 75.0 115 T150.0 115 T225.0 115 T300 115" stroke="rgba(255,255,255,0.3)" fill="none" stroke-width="2"/>
    <path d="M0 123 Q36.0 115 75.0 123 T150.0 123 T225.0 123 T300 123" stroke="rgba(255,255,255,0.2)" fill="none" stroke-width="1.5"/>
  <!-- Parent sitting at pool edge -->
  <circle cx="130" cy="50" r="10" fill="white"/>
  <path d="M130 60 L130 90 L120 115 L124 115 L132 95 L140 115 L144 115 L130 90 Z" fill="white"/>
  <line x1="130" y1="68" x2="115" y2="80" stroke="white" stroke-width="3" stroke-linecap="round"/>
  <line x1="130" y1="68" x2="152" y2="62" stroke="white" stroke-width="3" stroke-linecap="round"/>
  <!-- Baby/toddler being held -->
  <circle cx="155" cy="58" r="7" fill="white"/>
  <ellipse cx="155" cy="70" rx="6" ry="8" fill="white" opacity="0.9"/>
  <!-- Water ripples -->
  <ellipse cx="150" cy="130" rx="40" ry="3" fill="rgba(255,255,255,0.2)"/>
  <path d="M0 140 Q36.0 132 75.0 140 T150.0 140 T225.0 140 T300 140" stroke="rgba(255,255,255,0.3)" fill="none" stroke-width="2"/>
    <path d="M0 148 Q36.0 140 75.0 148 T150.0 148 T225.0 148 T300 148" stroke="rgba(255,255,255,0.2)" fill="none" stroke-width="1.5"/>

</svg>